<svg width="100" height="100" viewBox="0 0 64 64" fill="none" xmlns="http://www.w3.org/2000/svg">
  <!-- Background -->
  <rect x="4" y="10" width="56" height="38" rx="4" ry="4" fill="#82CFFF"/>
  
  <!-- Light Bulb -->
  <circle cx="19" cy="19" r="9" fill="#FFE59E"/>
  <path d="M16.5 16C16.5 15.17 17.17 14.5 18 14.5H20C20.83 14.5 21.5 15.17 21.5 16V18C21.5 18.83 20.83 19.5 20 19.5H18C17.17 19.5 16.5 18.83 16.5 18V16Z" fill="#4A4A4A"/>
  <path d="M16 23H22V26C22 27.1 21.1 28 20 28H18C16.9 28 16 27.1 16 26V23Z" fill="#9E9E9E"/>
  
  <!-- Gear -->
  <circle cx="42" cy="22" r="7" fill="#FFCA28"/>
  <path d="M44.5 15L43 17.5L45 20.5L42 22.5L44.5 25.5L43 28L42 25.5L39 28L37.5 25.5L40.5 22.5L37.5 20.5L39 17.5L42 15L44.5 15Z" fill="#FFCA28"/>
  
  <!-- Screen Details -->
  <rect x="7" y="16" width="10" height="3" fill="#4A4A4A"/>
  <rect x="7" y="22" width="7" height="3" fill="#4A4A4A"/>
  <rect x="7" y="28" width="7" height="3" fill="#4A4A4A"/>
  
  <!-- Bottom Bar -->
  <rect x="10" y="35" width="44" height="6" fill="#C4C4C4"/>
  <rect x="22" y="39" width="20" height="3" fill="#FF6B6B"/>
  
  <!-- Stand -->
  <rect x="24" y="45" width="16" height="3" fill="#9E9E9E"/>
</svg>
