<svg width="23" height="22" viewBox="0 0 23 22" fill="none" xmlns="http://www.w3.org/2000/svg">
<path opacity="0.6" d="M22.7926 1.99378C22.7926 1.99378 22.7926 2.00361 22.7926 2.00852L17.0762 20.8634C16.9897 21.1697 16.8116 21.4421 16.5658 21.6442C16.32 21.8463 16.0183 21.9684 15.7011 21.9941C15.656 21.998 15.6108 22 15.5656 22C15.2684 22.0009 14.9771 21.9168 14.7261 21.7575C14.4752 21.5983 14.275 21.3705 14.1493 21.1012L10.574 13.7631C10.5383 13.6896 10.5263 13.6067 10.5399 13.5261C10.5534 13.4454 10.5918 13.371 10.6497 13.3132L16.3386 7.62354C16.4797 7.47496 16.5572 7.27712 16.5546 7.07219C16.552 6.86727 16.4694 6.67148 16.3245 6.52656C16.1796 6.38165 15.9839 6.29907 15.779 6.29645C15.5741 6.29383 15.3763 6.37136 15.2277 6.51252L9.53586 12.2022C9.47808 12.2601 9.40368 12.2984 9.32304 12.312C9.2424 12.3256 9.15954 12.3136 9.08601 12.2778L1.7421 8.70312C1.45492 8.56533 1.21639 8.34351 1.05811 8.06707C0.899832 7.79063 0.829279 7.47261 0.8558 7.15516C0.882322 6.83771 1.00467 6.53581 1.20662 6.28947C1.40858 6.04313 1.68061 5.86398 1.98667 5.77577L20.839 0.058584H20.8538C21.1222 -0.0168381 21.4058 -0.0194822 21.6756 0.050923C21.9454 0.121328 22.1916 0.262248 22.3889 0.459224C22.5863 0.6562 22.7277 0.90214 22.7986 1.17181C22.8696 1.44148 22.8675 1.72517 22.7926 1.99378Z" fill="white"/>
</svg>
