<svg width="24" height="22" viewBox="0 0 24 22" fill="none" xmlns="http://www.w3.org/2000/svg">
<path d="M7.8999 4.21895C7.89987 3.42069 8.12631 2.6388 8.55292 1.96411C8.97954 1.28941 9.58882 0.749599 10.31 0.407371C11.0312 0.0651441 11.8346 -0.0654521 12.6271 0.0307523C13.4195 0.126957 14.1684 0.446013 14.7867 0.950862C15.4051 1.45571 15.8675 2.12563 16.1203 2.88281C16.3731 3.63998 16.4058 4.45334 16.2148 5.2284C16.0238 6.00346 15.6167 6.70841 15.041 7.26138C14.4653 7.81434 13.7445 8.19262 12.9624 8.35227V16.0314C12.9624 16.2552 12.8735 16.4698 12.7153 16.6281C12.557 16.7863 12.3424 16.8752 12.1187 16.8752C11.8949 16.8752 11.6803 16.7863 11.522 16.6281C11.3638 16.4698 11.2749 16.2552 11.2749 16.0314V8.35227C10.3226 8.15687 9.4669 7.63901 8.85207 6.88603C8.23724 6.13305 7.90094 5.19105 7.8999 4.21895ZM21.6108 12.9296C20.3178 12.1977 18.5396 11.6355 16.4671 11.3033C16.3575 11.286 16.2455 11.2904 16.1376 11.3164C16.0297 11.3423 15.928 11.3893 15.8382 11.4546C15.7485 11.5198 15.6725 11.6022 15.6145 11.6968C15.5566 11.7915 15.5178 11.8966 15.5005 12.0062C15.4832 12.1159 15.4876 12.2278 15.5136 12.3357C15.5396 12.4436 15.5865 12.5454 15.6518 12.6351C15.7171 12.7249 15.7994 12.8009 15.894 12.8589C15.9887 12.9168 16.0938 12.9555 16.2035 12.9729C18.0534 13.2703 19.6839 13.7776 20.7829 14.402C21.7163 14.924 22.2437 15.5189 22.2437 16.0314C22.2437 17.4405 18.3919 19.4064 12.1187 19.4064C5.84537 19.4064 1.99365 17.4405 1.99365 16.0314C1.99365 15.5189 2.521 14.924 3.45439 14.3977C4.5576 13.7734 6.18393 13.2661 8.03385 12.9686C8.1458 12.954 8.25368 12.9171 8.3511 12.86C8.44851 12.8029 8.53348 12.7269 8.60097 12.6364C8.66846 12.5458 8.7171 12.4427 8.74401 12.333C8.77091 12.2234 8.77553 12.1095 8.7576 11.998C8.73967 11.8865 8.69955 11.7798 8.63961 11.6841C8.57968 11.5884 8.50115 11.5057 8.40868 11.4409C8.31621 11.3762 8.21168 11.3306 8.10127 11.307C7.99087 11.2833 7.87685 11.2821 7.76596 11.3033C5.6935 11.6355 3.91529 12.1977 2.62225 12.9296C0.707988 14.0138 0.306152 15.2151 0.306152 16.0314C0.306152 19.32 6.39275 21.0939 12.1187 21.0939C17.8446 21.0939 23.9312 19.32 23.9312 16.0314C23.9312 15.2151 23.5293 14.0138 21.6108 12.9296Z" fill="#ADADAD"/>
</svg>
