<svg width="25" height="25" viewBox="0 0 25 25" fill="none" xmlns="http://www.w3.org/2000/svg">
<path opacity="0.2" d="M12.2654 0C9.88662 0 7.56128 0.705384 5.58342 2.02695C3.60555 3.34852 2.06399 5.22691 1.15368 7.4246C0.24337 9.62228 0.00519149 12.0406 0.469264 14.3736C0.933337 16.7067 2.07882 18.8497 3.76085 20.5317C5.44289 22.2138 7.58593 23.3592 9.91898 23.8233C12.252 24.2874 14.6703 24.0492 16.868 23.1389C19.0657 22.2286 20.9441 20.687 22.2656 18.7092C23.5872 16.7313 24.2926 14.406 24.2926 12.0272C24.2892 8.83843 23.021 5.78122 20.7662 3.52641C18.5114 1.2716 15.4542 0.00336741 12.2654 0ZM12.2654 22.2041C10.2526 22.2041 8.28499 21.6072 6.61141 20.489C4.93783 19.3707 3.63344 17.7813 2.86317 15.9217C2.09291 14.0622 1.89137 12.0159 2.28405 10.0418C2.67673 8.06768 3.64598 6.25434 5.06924 4.83108C6.4925 3.40782 8.30585 2.43856 10.28 2.04589C12.2541 1.65321 14.3003 1.85475 16.1599 2.62501C18.0195 3.39527 19.6089 4.69967 20.7271 6.37324C21.8454 8.04682 22.4422 10.0144 22.4422 12.0272C22.4392 14.7253 21.366 17.3121 19.4581 19.22C17.5503 21.1278 14.9635 22.201 12.2654 22.2041Z" fill="#AFAFAF"/>
<path d="M17.5454 12.6813C17.7189 12.5078 17.8164 12.2725 17.8164 12.0271C17.8164 11.7817 17.7189 11.5464 17.5454 11.3729C17.3719 11.1994 17.1366 11.1019 16.8912 11.1019H13.1905V7.40124C13.1905 7.15587 13.0931 6.92055 12.9196 6.74705C12.7461 6.57355 12.5107 6.47607 12.2654 6.47607C12.02 6.47607 11.7847 6.57355 11.6112 6.74705C11.4377 6.92055 11.3402 7.15587 11.3402 7.40124V11.1019H7.63953C7.39416 11.1019 7.15883 11.1994 6.98533 11.3729C6.81183 11.5464 6.71436 11.7817 6.71436 12.0271C6.71436 12.2725 6.81183 12.5078 6.98533 12.6813C7.15883 12.8548 7.39416 12.9523 7.63953 12.9523H11.3402V16.6529C11.3402 16.8983 11.4377 17.1336 11.6112 17.3071C11.7847 17.4806 12.02 17.5781 12.2654 17.5781C12.5107 17.5781 12.7461 17.4806 12.9196 17.3071C13.0931 17.1336 13.1905 16.8983 13.1905 16.6529V12.9523H16.8912C17.1366 12.9523 17.3719 12.8548 17.5454 12.6813Z" fill="white"/>
</svg>
